<svg version="1.2" xmlns="http://www.w3.org/2000/svg" viewBox="0 0 398 82" width="360" height="74">
	<title>New Project</title>
	<style>
	</style>
	<path id="BTS" fill="#fff" aria-label="BTS"  d="m23.3 33h9.78q4.17 0 6.33-1.83q2.16-1.84 2.16-5.42q0-3.53-2.16-5.37q-2.16-1.88-6.33-1.88h-9.78zm0 29.97h10.37q5.33 0 7.99-2.25q2.71-2.25 2.71-6.79q0-4.45-2.66-6.66q-2.67-2.25-8.04-2.25h-10.37zm26.8-24.64q5.7 1.65 8.82 6.1q3.12 4.45 3.12 10.93q0 9.91-6.7 14.77q-6.7 4.87-20.38 4.87h-29.33v-68.53h26.53q14.27 0 20.65 4.32q6.43 4.31 6.43 13.81q0 5.01-2.34 8.54q-2.34 3.49-6.8 5.19zm19.01-18.5v-13.36h63.15v13.36h-22.72v55.17h-17.67v-55.17zm119.98-11.2v14.5q-5.64-2.52-11.02-3.8q-5.37-1.29-10.14-1.29q-6.33 0-9.36 1.74q-3.03 1.75-3.03 5.42q0 2.75 2.02 4.31q2.06 1.52 7.43 2.62l7.53 1.52q11.43 2.29 16.25 6.97q4.82 4.68 4.82 13.31q0 11.34-6.75 16.89q-6.7 5.51-20.52 5.51q-6.51 0-13.08-1.24q-6.56-1.24-13.12-3.67v-14.92q6.56 3.49 12.66 5.28q6.16 1.75 11.85 1.75q5.78 0 8.86-1.93q3.07-1.93 3.07-5.51q0-3.21-2.11-4.96q-2.07-1.74-8.31-3.12l-6.84-1.51q-10.28-2.21-15.05-7.03q-4.73-4.81-4.73-12.98q0-10.24 6.61-15.75q6.61-5.51 19-5.51q5.65 0 11.61 0.88q5.97 0.82 12.35 2.52z" />
	</svg>