<svg version="1.2" xmlns="http://www.w3.org/2000/svg" viewBox="0 0 439 80" width="439" height="80">
	<title>New Project</title>
	<style>
	</style>
	<path id="BTS" fill="#fff" aria-label="BTS"  d="m11.68 8.77c-0.74 0-1.2 0.46-1.2 1.2v62.83c0 0.74 0.46 1.2 1.2 1.2h26.77c14.44 0 22.91-6.81 22.91-18.31c0-9.38-6.08-13.43-9.48-14.72c-1.38-0.55-1.29-1.38 0.09-1.93c2.49-1.2 7.36-4.69 7.36-12.79c0-10.95-8.46-17.48-22.63-17.48zm13.71 13.07h11.31c4.88 0 7.64 2.2 7.64 5.98c0 4.14-2.76 6.16-8.74 6.16h-10.21zm0 25.12h11.22c6.72 0 9.75 2.39 9.75 7.36c0 4.14-2.94 6.71-8.09 6.71h-12.88zm95.59-36.98c0-0.74-0.46-1.2-1.2-1.2h-51.15c-0.74 0-1.2 0.46-1.2 1.2v10.67c0 0.74 0.46 1.2 1.2 1.2h18.21v50.96c0 0.74 0.46 1.2 1.2 1.2h12.42c0.74 0 1.2-0.46 1.2-1.2v-50.96h18.12c0.74 0 1.2-0.46 1.2-1.2zm32.29 38.92c5.06 1.93 8.28 4.04 8.28 6.8c0 4.88-4.23 6.08-9.2 6.08c-3.96 0-8.01-0.56-13.43-2.21l-6.44-1.93c-0.74-0.28-1.2 0-1.48 0.73l-3.68 10.21c-0.18 0.74 0 1.2 0.83 1.48l6.07 1.93c7.64 2.48 12.61 3.03 18.13 3.03c15.64 0 24.19-6.71 24.19-19.32c0-10.02-4.6-14.81-17.38-19.59l-7.73-2.85c-5.25-1.94-8.1-3.41-8.1-6.63c0-3.31 3.5-5.52 8.65-5.52c3.77 0 7.27 0.83 10.95 1.93l5.43 1.66c0.73 0.28 1.19 0 1.47-0.74l3.77-10.3c0.18-0.74 0-1.2-0.83-1.47l-6.07-2.03c-4.42-1.47-9.38-2.39-14.72-2.39c-14.54 0-23.64 6.81-23.64 18.86c0 10.03 4.6 14.63 17.2 19.32z" />
	<path id="BACKEND" fill="#fff" aria-label="BACKEND"  d="m190.94 7.25c-0.41 0-0.67 0.26-0.67 0.68v35.4c0 0.41 0.26 0.67 0.67 0.67h15.09c8.13 0 12.9-3.84 12.9-10.31c0-5.29-3.42-7.57-5.34-8.3c-0.77-0.31-0.72-0.77 0.06-1.09c1.4-0.67 4.14-2.64 4.14-7.2c0-6.17-4.77-9.85-12.75-9.85zm7.73 7.36h6.37c2.75 0 4.3 1.25 4.3 3.37c0 2.33-1.55 3.47-4.92 3.47h-5.75zm0 14.15h6.32c3.78 0 5.49 1.35 5.49 4.15c0 2.33-1.66 3.78-4.56 3.78h-7.25zm48.66 10.37l1.56 4.35c0.15 0.37 0.41 0.52 0.78 0.52h7.3c0.52 0 0.73-0.31 0.58-0.78l-7.31-19.8c-1.92-5.28-3.63-10.36-4.93-15.6c-0.1-0.36-0.36-0.57-0.77-0.57h-9.65c-0.41 0-0.67 0.21-0.77 0.57c-1.3 5.24-3.01 10.32-4.93 15.6l-7.3 19.8c-0.16 0.47 0.05 0.78 0.57 0.78h7.3c0.37 0 0.63-0.15 0.78-0.52l1.56-4.35zm-2.65-7.31h-9.95l0.73-2.07c1.5-4.15 3.11-8.97 3.78-12.34c0.16-0.62 0.78-0.62 0.93 0c0.63 3.37 2.28 8.24 3.79 12.34zm42.29 10.68c0.47-0.16 0.57-0.42 0.42-0.83l-2.08-5.65c-0.1-0.42-0.41-0.57-0.83-0.42l-2.43 0.73c-1.87 0.62-3.42 0.78-5.34 0.78c-5.18 0-8.35-4.2-8.35-11.51c0-7.21 3.17-11.4 8.35-11.4c2.38 0 3.89 0.2 5.39 0.67l2.44 0.78c0.41 0.15 0.67 0 0.82-0.42l1.87-5.85c0.16-0.42 0-0.68-0.41-0.83l-2.39-0.78c-2.59-0.83-4.77-1.09-7.72-1.09c-10.42 0-16.79 7.31-16.79 18.92c0 11.66 6.37 18.97 16.79 18.97c2.85 0 4.97-0.31 7.77-1.25zm36.8-34.46c0.26-0.47 0.06-0.78-0.46-0.78h-7.57c-0.36 0-0.62 0.16-0.78 0.47l-3.94 7.56c-2.02 3.84-5.02 6.17-7.98 6.17h-1.04v-13.53c0-0.41-0.25-0.67-0.67-0.67h-7.05c-0.41 0-0.67 0.26-0.67 0.67v35.4c0 0.42 0.26 0.68 0.67 0.68h7.05c0.42 0 0.67-0.26 0.67-0.68v-14.56h1.09c2.96 0 6.07 2.54 8.3 6.74l4.19 8.03c0.16 0.31 0.42 0.47 0.78 0.47h7.72c0.57 0 0.78-0.31 0.52-0.78l-6.01-11.3c-1.61-3.16-3.78-5.29-6.79-6.63c-0.36-0.16-0.26-0.52 0-0.63c2.8-1.08 4.87-2.95 6.48-6.11zm14.56 13.42v-6.84h15.4c0.36 0 0.62-0.21 0.72-0.57l1.66-6.01c0.11-0.47-0.1-0.78-0.57-0.78h-24.93c-0.41 0-0.67 0.26-0.67 0.68v35.4c0 0.41 0.26 0.67 0.67 0.67h24.67c0.42 0 0.68-0.26 0.68-0.67v-5.96c0-0.42-0.26-0.68-0.68-0.68h-16.95v-7.93h12.7c0.42 0 0.68-0.26 0.68-0.67v-5.96c0-0.42-0.26-0.68-0.68-0.68zm54.58-13.52c0-0.42-0.26-0.68-0.67-0.68h-7c-0.42 0-0.67 0.26-0.67 0.68v14.61c0 3.73 0.05 6.12 0.57 9.33c0.1 0.73-0.47 1.04-0.83 0.21c-0.68-1.25-1.25-2.44-1.87-3.79l-7.41-15.03c-0.83-1.71-1.82-3.68-2.64-5.49c-0.16-0.36-0.37-0.52-0.78-0.52h-9.23c-0.41 0-0.67 0.26-0.67 0.68v35.4c0 0.41 0.26 0.67 0.67 0.67h7.05c0.42 0 0.67-0.26 0.67-0.67v-14.52c0-3.73-0.1-6.16-0.57-9.43c-0.05-0.67 0.47-0.98 0.89-0.21c0.62 1.35 1.19 2.54 1.86 3.89l7.36 14.93c0.83 1.71 1.82 3.68 2.59 5.49c0.16 0.36 0.37 0.52 0.78 0.52h9.23c0.41 0 0.67-0.26 0.67-0.67zm7.41-0.68c-0.41 0-0.67 0.26-0.67 0.68v35.4c0 0.41 0.26 0.67 0.67 0.67h12.86c10.16 0 16.58-7.36 16.58-18.35c0-11.25-6.22-18.4-16.58-18.4zm7.72 7.36h5.13c5.03 0 8.14 3.94 8.14 11.04c0 7.05-3.11 11.04-8.14 11.04h-5.13z" />
	<path id="TRAINING SYSTEM" fill="#fff" aria-label="TRAINING SYSTEM"  d="m206.3 56.43c0-0.21-0.14-0.34-0.35-0.34h-14.83c-0.21 0-0.35 0.13-0.35 0.34v3.1c0 0.21 0.14 0.35 0.35 0.35h5.28v14.77c0 0.22 0.13 0.35 0.35 0.35h3.6c0.21 0 0.34-0.13 0.34-0.35v-14.77h5.26c0.21 0 0.35-0.14 0.35-0.35zm3.01-0.35c-0.21 0-0.35 0.14-0.35 0.35v18.22c0 0.21 0.14 0.34 0.35 0.34h3.63c0.21 0 0.34-0.13 0.34-0.34v-6.38h0.75c2.96 0 3.82 1.28 4.78 3.6l1.17 2.86c0.08 0.18 0.19 0.26 0.4 0.26h3.84c0.24 0 0.35-0.16 0.27-0.4l-1.87-4.5c-0.48-1.04-1.15-2.22-2.32-2.94c-0.32-0.18-0.35-0.32 0.03-0.5c1.62-0.72 3.14-2.35 3.14-4.78c0-3.63-2.48-5.79-6.72-5.79zm3.98 8.43v-4.64h3.46c1.42 0 2.38 0.91 2.38 2.32c0 1.57-0.93 2.32-2.94 2.32zm26.06 7.98l0.81 2.24c0.08 0.18 0.21 0.26 0.4 0.26h3.76c0.26 0 0.37-0.16 0.29-0.4l-3.76-10.19c-0.99-2.72-1.87-5.33-2.54-8.02c-0.05-0.19-0.18-0.3-0.4-0.3h-4.96c-0.21 0-0.34 0.11-0.4 0.3c-0.66 2.69-1.54 5.3-2.53 8.02l-3.76 10.19c-0.08 0.24 0.02 0.4 0.29 0.4h3.76c0.19 0 0.32-0.08 0.4-0.26l0.8-2.24zm-1.36-3.76h-5.12l0.37-1.07c0.78-2.14 1.6-4.62 1.95-6.35c0.08-0.32 0.4-0.32 0.48 0c0.32 1.73 1.18 4.24 1.95 6.35zm13.47-12.3c0-0.21-0.13-0.34-0.35-0.34h-3.63c-0.21 0-0.34 0.13-0.34 0.34v18.22c0 0.21 0.13 0.35 0.34 0.35h3.63c0.22 0 0.35-0.14 0.35-0.35zm19.52 0c0-0.21-0.13-0.35-0.34-0.35h-3.6c-0.22 0-0.35 0.14-0.35 0.35v7.52c0 1.92 0.03 3.15 0.29 4.8c0.06 0.38-0.24 0.54-0.42 0.11c-0.35-0.64-0.64-1.25-0.96-1.95l-3.82-7.73c-0.42-0.88-0.93-1.9-1.36-2.83c-0.08-0.19-0.18-0.27-0.4-0.27h-4.75c-0.21 0-0.34 0.14-0.34 0.35v18.22c0 0.21 0.13 0.35 0.34 0.35h3.63c0.21 0 0.35-0.14 0.35-0.35v-7.47c0-1.92-0.06-3.17-0.3-4.85c-0.02-0.35 0.24-0.51 0.46-0.11c0.32 0.69 0.61 1.31 0.96 2l3.79 7.68c0.42 0.88 0.93 1.9 1.33 2.83c0.08 0.19 0.19 0.27 0.4 0.27h4.75c0.21 0 0.34-0.14 0.34-0.35zm7.79 0c0-0.21-0.13-0.35-0.34-0.35h-3.63c-0.21 0-0.35 0.14-0.35 0.35v18.22c0 0.21 0.14 0.34 0.35 0.34h3.63c0.21 0 0.34-0.13 0.34-0.34zm19.53 0c0-0.22-0.13-0.35-0.35-0.35h-3.6c-0.21 0-0.35 0.13-0.35 0.35v7.52c0 1.92 0.03 3.15 0.3 4.8c0.05 0.37-0.24 0.53-0.43 0.11c-0.35-0.64-0.64-1.26-0.96-1.95l-3.81-7.74c-0.43-0.88-0.94-1.89-1.36-2.82c-0.08-0.19-0.19-0.27-0.4-0.27h-4.75c-0.22 0-0.35 0.13-0.35 0.35v18.22c0 0.21 0.13 0.34 0.35 0.34h3.63c0.21 0 0.34-0.13 0.34-0.34v-7.47c0-1.92-0.05-3.18-0.29-4.86c-0.03-0.34 0.24-0.5 0.45-0.1c0.32 0.69 0.62 1.3 0.96 2l3.79 7.68c0.43 0.88 0.93 1.89 1.33 2.83c0.08 0.18 0.19 0.26 0.4 0.26h4.75c0.22 0 0.35-0.13 0.35-0.34zm12.62 7.86c-0.19 0-0.32 0.11-0.38 0.3l-0.88 3.09c-0.05 0.24 0.06 0.4 0.3 0.4h2.85v2.94l-0.29 0.08c-0.78 0.26-1.71 0.34-2.67 0.34c-2.67 0-4.27-2.21-4.27-5.89c0-3.71 1.6-5.9 4.27-5.9c1.07 0 1.87 0.08 2.75 0.38l1.28 0.4c0.21 0.08 0.37 0 0.42-0.22l1.1-2.93c0.08-0.21 0.02-0.35-0.22-0.43l-1.38-0.45c-1.39-0.43-2.48-0.61-3.95-0.61c-5.36 0-8.62 3.76-8.62 9.76c0 5.97 3.26 9.73 8.62 9.73c1.63 0 2.61-0.13 3.97-0.56l0.32-0.1l2.48-0.78c0.22-0.05 0.3-0.18 0.3-0.37v-8.83c0-0.21-0.14-0.35-0.35-0.35zm21.5 3.42c1.47 0.56 2.4 1.17 2.4 1.97c0 1.42-1.23 1.76-2.67 1.76c-1.14 0-2.32-0.16-3.89-0.64l-1.87-0.56c-0.21-0.08-0.35 0-0.43 0.22l-1.06 2.96c-0.06 0.21 0 0.34 0.24 0.42l1.76 0.56c2.21 0.72 3.65 0.88 5.25 0.88c4.54 0 7.02-1.94 7.02-5.6c0-2.91-1.34-4.29-5.04-5.68l-2.24-0.83c-1.52-0.56-2.35-0.98-2.35-1.92c0-0.96 1.01-1.6 2.51-1.6c1.09 0 2.1 0.24 3.17 0.56l1.57 0.48c0.22 0.08 0.35 0 0.43-0.21l1.09-2.99c0.06-0.21 0-0.34-0.24-0.42l-1.76-0.59c-1.28-0.43-2.72-0.69-4.26-0.69c-4.22 0-6.86 1.97-6.86 5.46c0 2.91 1.33 4.24 4.99 5.61zm25.15-11.23c0.14-0.24 0.03-0.4-0.26-0.4h-3.93c-0.18 0-0.32 0.08-0.4 0.24l-1.84 3.41c-0.82 1.55-1.52 3.2-1.84 4.16c-0.1 0.32-0.4 0.32-0.5 0c-0.35-0.96-0.99-2.59-1.84-4.16l-1.87-3.41c-0.08-0.16-0.21-0.24-0.4-0.24h-3.92c-0.3 0-0.4 0.16-0.27 0.4l3.34 6.24c2.26 4.21 3.06 5.71 3.06 9.41v2.51c0 0.21 0.14 0.35 0.35 0.35h3.6c0.21 0 0.35-0.14 0.35-0.35v-2.51c0-3.7 0.82-5.2 3.04-9.41zm8.67 11.23c1.46 0.56 2.4 1.17 2.4 1.97c0 1.41-1.23 1.76-2.67 1.76c-1.15 0-2.32-0.16-3.89-0.64l-1.87-0.56c-0.21-0.08-0.35 0-0.43 0.21l-1.06 2.96c-0.06 0.22 0 0.35 0.24 0.43l1.76 0.56c2.21 0.72 3.65 0.88 5.25 0.88c4.54 0 7.02-1.95 7.02-5.6c0-2.91-1.34-4.29-5.05-5.68l-2.24-0.83c-1.52-0.56-2.34-0.98-2.34-1.92c0-0.96 1.01-1.6 2.5-1.6c1.1 0 2.11 0.24 3.18 0.56l1.57 0.48c0.22 0.08 0.35 0 0.43-0.21l1.09-2.99c0.06-0.21 0-0.35-0.24-0.43l-1.76-0.58c-1.28-0.43-2.72-0.7-4.27-0.7c-4.21 0-6.85 1.98-6.85 5.47c0 2.91 1.33 4.24 4.99 5.6zm23.79-11.28c0-0.21-0.13-0.35-0.35-0.35h-14.83c-0.21 0-0.34 0.14-0.34 0.35v3.09c0 0.22 0.13 0.35 0.34 0.35h5.28v14.78c0 0.21 0.14 0.35 0.35 0.35h3.6c0.22 0 0.35-0.14 0.35-0.35v-14.78h5.25c0.22 0 0.35-0.13 0.35-0.35zm6.99 6.97v-3.52h7.92c0.19 0 0.32-0.11 0.37-0.3l0.86-3.09c0.05-0.24-0.06-0.4-0.3-0.4h-12.83c-0.21 0-0.34 0.13-0.34 0.34v18.22c0 0.22 0.13 0.35 0.34 0.35h12.7c0.21 0 0.35-0.13 0.35-0.35v-3.06c0-0.22-0.14-0.35-0.35-0.35h-8.72v-4.08h6.53c0.22 0 0.35-0.14 0.35-0.35v-3.07c0-0.21-0.13-0.34-0.35-0.34zm31.11-6.97c0-0.21-0.14-0.34-0.35-0.34h-5.36c-0.22 0-0.35 0.1-0.4 0.29c-0.16 0.59-0.38 1.28-0.59 1.81l-1.44 4.03c-0.4 1.18-0.88 2.83-1.17 4.06c-0.08 0.32-0.35 0.32-0.43 0c-0.29-1.2-0.83-2.83-1.25-4.06l-1.39-4.03c-0.19-0.53-0.4-1.22-0.59-1.81c-0.05-0.21-0.18-0.29-0.37-0.29h-5.39c-0.21 0-0.35 0.13-0.35 0.34v18.22c0 0.22 0.14 0.35 0.35 0.35h3.63c0.21 0 0.35-0.13 0.35-0.35v-5.63c0-2-0.11-4.77-0.38-6.72c-0.05-0.37 0.27-0.45 0.4-0.1c0.27 0.72 0.56 1.41 0.83 2.13l1.47 4.08c0.26 0.69 0.58 1.71 0.9 2.67c0.06 0.21 0.19 0.29 0.38 0.29h3.22c0.19 0 0.32-0.08 0.38-0.29c0.32-0.96 0.64-1.98 0.88-2.67l1.46-4.05c0.3-0.72 0.59-1.44 0.86-2.16c0.1-0.35 0.42-0.27 0.37 0.1c-0.27 1.95-0.32 4.72-0.32 6.72v5.63c0 0.22 0.13 0.35 0.35 0.35h3.6c0.21 0 0.35-0.13 0.35-0.35z" />
</svg>